<svg xmlns="http://www.w3.org/2000/svg" width="128" height="128" viewBox="0 0 128 128"><rect width="128" height="128" rx="16" fill="#1B1A18"/><svg x="28" y="36" width="72" height="56.1" viewBox="-9.6 -159.4 227.8 177.6">
<path fill="#E9E3D8" d="M80.20 2.20Q64.80 2.20 51.30-3.40Q37.80-9 27.80-18.90Q17.80-28.80 12.10-42.10Q6.40-55.40 6.40-70.80Q6.40-86.20 12.20-99.40Q18-112.60 28.30-122.50Q38.60-132.40 52.40-137.90Q66.20-143.40 82-143.40Q100.20-143.40 115.10-136.80Q130-130.20 139.80-118.60L118.40-97.20Q111.60-106 102.40-110.40Q93.20-114.80 81.60-114.80Q69.20-114.80 59.40-109.30Q49.60-103.80 44.10-93.90Q38.60-84 38.60-70.80Q38.60-57.60 44-47.60Q49.40-37.60 58.80-32Q68.20-26.40 80.40-26.40Q92.80-26.40 101.50-31.10Q110.20-35.80 114.90-44.70Q119.60-53.60 119.60-66.40L140.40-52.40L77.40-53.40L77.40-80L151.60-80L151.60-75.40Q151.60-50 142.50-32.70Q133.40-15.40 117.30-6.60Q101.20 2.20 80.20 2.20"/>
<path fill="#CF9457" d="M184 2.20Q176.20 2.20 171-3.20Q165.80-8.60 165.80-16.20Q165.80-24.20 171-29.50Q176.20-34.80 184-34.80Q192-34.80 197.10-29.50Q202.20-24.20 202.20-16.20Q202.20-8.60 197.10-3.20Q192 2.20 184 2.20"/>
</svg></svg>